<?xml version="1.0" standalone="no"?>
<!DOCTYPE svg PUBLIC "-//W3C//DTD SVG 20010904//EN"
 "http://www.w3.org/TR/2001/REC-SVG-20010904/DTD/svg10.dtd">
<svg version="1.0" xmlns="http://www.w3.org/2000/svg"
 width="512.000000pt" height="512.000000pt" viewBox="0 0 512.000000 512.000000"
 preserveAspectRatio="xMidYMid meet">

<g transform="translate(0.000000,512.000000) scale(0.100000,-0.100000)"
fill="#000000" stroke="none">
<path d="M2495 5106 c-37 -17 -70 -52 -84 -89 -7 -17 -11 -123 -11 -270 0
-232 1 -244 23 -282 24 -43 91 -85 137 -85 45 0 113 42 138 85 22 39 22 46 20
297 -3 241 -4 258 -24 284 -11 15 -32 37 -46 47 -34 25 -113 32 -153 13z"/>
<path d="M813 4409 c-76 -22 -124 -111 -103 -191 10 -36 39 -71 193 -225 173
-173 184 -181 229 -188 107 -16 199 76 183 182 -7 45 -16 57 -178 222 -203
205 -236 225 -324 200z"/>
<path d="M4195 4401 c-25 -11 -105 -85 -212 -192 -160 -164 -172 -177 -178
-221 -18 -121 96 -217 208 -174 63 24 380 345 397 401 24 81 -27 172 -108 195
-50 13 -60 13 -107 -9z"/>
<path d="M2375 4043 c-564 -73 -1035 -452 -1223 -984 -62 -175 -77 -273 -77
-494 0 -220 12 -302 65 -467 84 -255 243 -493 440 -660 151 -127 214 -197 258
-288 70 -143 74 -167 82 -520 6 -285 9 -321 28 -372 40 -110 103 -180 202
-227 l55 -26 355 0 355 0 67 32 c82 39 142 99 182 183 l31 65 6 340 c5 287 8
349 23 395 46 142 126 254 264 372 193 165 312 312 407 503 105 212 144 370
152 620 4 143 2 189 -15 290 -90 521 -437 950 -926 1145 -91 36 -243 75 -349
89 -74 10 -315 13 -382 4z m381 -328 c237 -41 439 -143 612 -309 106 -101 169
-186 231 -306 92 -180 131 -339 131 -540 0 -197 -42 -369 -131 -541 -80 -153
-159 -245 -368 -428 -172 -151 -294 -359 -332 -565 l-12 -66 -327 0 -328 0
-21 93 c-56 242 -181 435 -386 595 -27 21 -82 72 -120 113 -293 310 -392 770
-255 1181 134 400 480 697 902 773 101 18 297 18 404 0z m124 -3217 c0 -118
-3 -145 -17 -160 -15 -17 -37 -18 -297 -18 -155 0 -286 4 -293 8 -24 15 -33
66 -33 188 l0 124 320 0 320 0 0 -142z"/>
<path d="M2536 3498 c-147 -86 -81 -298 92 -298 69 0 192 -34 265 -72 80 -42
193 -155 235 -235 38 -73 72 -196 72 -265 0 -135 134 -217 244 -149 71 44 90
122 65 271 -68 420 -420 742 -839 766 -87 5 -98 3 -134 -18z"/>
<path d="M95 2706 c-94 -41 -124 -168 -58 -247 47 -55 68 -59 335 -59 233 0
245 1 283 23 43 24 85 91 85 137 0 46 -42 113 -85 137 -38 22 -50 23 -285 22
-181 0 -253 -3 -275 -13z"/>
<path d="M4465 2698 c-43 -25 -85 -93 -85 -138 0 -45 42 -113 85 -138 39 -22
46 -22 297 -20 283 3 281 3 332 72 29 39 29 133 0 172 -51 69 -49 69 -332 72
-251 2 -258 2 -297 -20z"/>
<path d="M1110 1313 c-16 -3 -93 -73 -207 -186 -200 -200 -215 -224 -193 -306
14 -52 75 -107 128 -116 71 -12 110 15 299 206 162 165 171 177 178 222 10 68
-23 134 -85 165 -43 21 -67 24 -120 15z"/>
<path d="M3893 1301 c-74 -35 -108 -118 -79 -194 24 -63 345 -380 401 -397
115 -34 229 80 195 195 -9 31 -47 75 -173 203 -89 90 -174 172 -189 183 -40
29 -105 33 -155 10z"/>
</g>
</svg>
